<svg
  xmlns="http://www.w3.org/2000/svg" viewBox="0 0 678.92 137.51">
  <path d="M142.48,112.69c.12,2.66,2.23,5,6.22,5,3.56,0,6-1.69,6.09-4.41.06-1.87-.78-3.5-5-4.7l-5-1.39C135.6,104.36,134,99,134,95.25c0-7.43,6.34-12.44,14.3-12.44s14.07,4.77,14.07,12.74h-8.81c0-2.78-1.88-4.71-5.38-4.71-3.07,0-5.37,1.69-5.37,4.16,0,1.09.42,3.08,4.47,4.23l4.95,1.57c10.08,2.9,11.53,8.57,11.41,12.55-.12,8.27-7.61,12.2-15,12.2-9.06,0-15.09-5.37-15.09-12.86Z" fill="#1b75bc"/>
  <path d="M203.81,95.25A12.07,12.07,0,0,0,194.7,91c-7,0-12.44,5.92-12.44,13.16s5.43,13.22,12.44,13.22c4.46,0,10-2.78,10.08-7.18H193.61V103H215c0,15.58-8.33,22.46-20.28,22.46a21.34,21.34,0,0,1,0-42.68,20.58,20.58,0,0,1,15.63,6.82Z" fill="#1b75bc"/>
  <path d="M262.25,116.37a20.64,20.64,0,0,1-17.51,9.12c-11.89,0-20.88-9.6-20.88-21.31s9-21.37,20.88-21.37a20.7,20.7,0,0,1,17.33,8.81l-7.19,4.95a12.18,12.18,0,0,0-10.14-5.43c-6.94,0-12,5.8-12,13s5.07,13,12,13a12.52,12.52,0,0,0,10.38-5.74Z" fill="#f37021"/>
  <path d="M292,82.81a21.34,21.34,0,1,1-21.07,21.37A21.13,21.13,0,0,1,292,82.81Zm0,33.92a12.59,12.59,0,1,0-12.25-12.55A12.38,12.38,0,0,0,292,116.73Z" fill="#f37021"/>
  <path d="M325.28,124.88V83.29h16.29c12,0,18.78,9.06,18.78,20.89s-6.82,20.7-18.78,20.7Zm8.81-8h7.48c6.64,0,10-5.86,10-12.68s-3.32-12.86-10-12.86h-7.48Z" fill="#f37021"/>
  <path d="M372.79,83.29H399.1v7.79H381.6v9.48h15.33v7.66H381.6v8.88h18v7.78H372.79Z" fill="#f37021"/>
  <path d="M447.58,116.37a20.64,20.64,0,0,1-17.51,9.12c-11.89,0-20.88-9.6-20.88-21.31s9-21.37,20.88-21.37a20.69,20.69,0,0,1,17.33,8.81l-7.18,4.95a12.21,12.21,0,0,0-10.15-5.43c-6.94,0-12,5.8-12,13s5.07,13,12,13a12.55,12.55,0,0,0,10.39-5.74Z" fill="#1b75bc"/>
  <path d="M466.48,115l-3.68,9.84h-9.42l15.45-41.59h9.6l15.39,41.59h-9.29L480.84,115ZM478,107.38,473.6,92.89l-4.23,14.49Z" fill="#1b75bc"/>
  <path d="M538.37,83.29h7.43l5.07,41.59H542L539.1,100l-9.72,20.17h-6.82L512.78,100l-3,24.93H501l5.13-41.59h7.3l12.56,26.8Z" fill="#1b75bc"/>
  <path d="M563.19,83.29h17.08c9.48,0,13.7,6.82,13.7,13.65s-4.22,13.58-13.7,13.58h-8.21v14.36h-8.87Zm8.87,7.79v11.71h7.79c3.44,0,5.25-3.14,5.25-5.85s-1.69-5.86-5-5.86Z" fill="#1b75bc"/>
  <path d="M628,110V83.29h8.88V110c0,9.42-7.55,15.46-16.06,15.46s-16.18-6-16.18-15.46V83.29h9V110A7.18,7.18,0,0,0,628,110Z" fill="#1b75bc"/>
  <path d="M657.73,112.69c.12,2.66,2.23,5,6.21,5,3.56,0,6-1.69,6.1-4.41.06-1.87-.79-3.5-5-4.7l-5-1.39c-9.18-2.84-10.75-8.21-10.75-12,0-7.43,6.34-12.44,14.31-12.44s14.07,4.77,14.07,12.74h-8.82c0-2.78-1.87-4.71-5.37-4.71-3.08,0-5.37,1.69-5.37,4.16,0,1.09.42,3.08,4.46,4.23l5,1.57c10.09,2.9,11.53,8.57,11.41,12.55-.12,8.27-7.6,12.2-15,12.2-9.05,0-15.09-5.37-15.09-12.86Z" fill="#1b75bc"/>
  <path d="M110.05,137,62,41.49a1,1,0,0,0-1.73,0L13.51,137a1,1,0,0,1-.87.54H1a1,1,0,0,1-.86-1.39L60.24,15.63a1,1,0,0,1,1.72,0l60.36,120.49a1,1,0,0,1-.86,1.39H110.91A.94.94,0,0,1,110.05,137Z" fill="#f37021"/>
  <path d="M79.89,114.17l-7.61-5.34a1.49,1.49,0,0,0-1.12-.24,1.46,1.46,0,0,0-.94.65,8.78,8.78,0,0,1-7.45,4.11,8.87,8.87,0,0,1,0-17.73,8.75,8.75,0,0,1,7.39,4.15,1.45,1.45,0,0,0,2.06.42c1.89-1.32,6.73-4.72,7.6-5.31l.16-.11a1.43,1.43,0,0,0,.55-1.64,1.56,1.56,0,0,0-.42-.64,21.14,21.14,0,1,0,.16,23.66A1.45,1.45,0,0,0,79.89,114.17Z" fill="#1b75bc"/>
  <path d="M60.9,13.08S43.88,7,43.88,7L60.9,0Z" fill="#1b75bc"/>
</svg>